<mxfile host="app.diagrams.net" agent="Mozilla/5.0 (Windows NT 10.0; Win64; x64) AppleWebKit/537.36 (KHTML, like Gecko) Chrome/132.0.0.0 Safari/537.36" version="26.0.11" pages="8">
  <diagram name="Página-1" id="wPbqWuxjHs4o1zyo2OOi">
    <mxGraphModel dx="1050" dy="505" grid="1" gridSize="10" guides="1" tooltips="1" connect="1" arrows="1" fold="1" page="1" pageScale="1" pageWidth="827" pageHeight="1169" math="0" shadow="0">
      <root>
        <mxCell id="0" />
        <mxCell id="1" parent="0" />
        <mxCell id="4NkFLatkgoF2oea7ffIl-1" value="Inicio/Fim" style="strokeWidth=2;html=1;shape=mxgraph.flowchart.start_1;whiteSpace=wrap;" vertex="1" parent="1">
          <mxGeometry x="670" y="20" width="100" height="60" as="geometry" />
        </mxCell>
        <mxCell id="4NkFLatkgoF2oea7ffIl-2" value="Entrada de Dados" style="html=1;strokeWidth=2;shape=manualInput;whiteSpace=wrap;rounded=1;size=26;arcSize=11;" vertex="1" parent="1">
          <mxGeometry x="650" y="100" width="120" height="80" as="geometry" />
        </mxCell>
        <mxCell id="4NkFLatkgoF2oea7ffIl-3" value="Processamento" style="rounded=1;whiteSpace=wrap;html=1;absoluteArcSize=1;arcSize=14;strokeWidth=2;" vertex="1" parent="1">
          <mxGeometry x="650" y="210" width="140" height="90" as="geometry" />
        </mxCell>
        <mxCell id="4NkFLatkgoF2oea7ffIl-4" value="Mostrar&amp;nbsp;&lt;br&gt;Informacao" style="strokeWidth=2;html=1;shape=mxgraph.flowchart.display;whiteSpace=wrap;" vertex="1" parent="1">
          <mxGeometry x="650" y="330" width="140" height="80" as="geometry" />
        </mxCell>
        <mxCell id="4NkFLatkgoF2oea7ffIl-5" value="Decisao" style="strokeWidth=2;html=1;shape=mxgraph.flowchart.decision;whiteSpace=wrap;" vertex="1" parent="1">
          <mxGeometry x="670" y="430" width="100" height="100" as="geometry" />
        </mxCell>
        <mxCell id="4NkFLatkgoF2oea7ffIl-8" value="" style="edgeStyle=orthogonalEdgeStyle;rounded=0;orthogonalLoop=1;jettySize=auto;html=1;" edge="1" parent="1" source="4NkFLatkgoF2oea7ffIl-6" target="4NkFLatkgoF2oea7ffIl-7">
          <mxGeometry relative="1" as="geometry" />
        </mxCell>
        <mxCell id="4NkFLatkgoF2oea7ffIl-6" value="Encostar o bilhete&lt;br&gt;na catraca" style="strokeWidth=2;html=1;shape=mxgraph.flowchart.start_1;whiteSpace=wrap;" vertex="1" parent="1">
          <mxGeometry x="150" y="30" width="130" height="90" as="geometry" />
        </mxCell>
        <mxCell id="4NkFLatkgoF2oea7ffIl-12" value="" style="edgeStyle=orthogonalEdgeStyle;rounded=0;orthogonalLoop=1;jettySize=auto;html=1;" edge="1" parent="1" source="4NkFLatkgoF2oea7ffIl-7" target="4NkFLatkgoF2oea7ffIl-11">
          <mxGeometry relative="1" as="geometry" />
        </mxCell>
        <mxCell id="4NkFLatkgoF2oea7ffIl-20" value="" style="edgeStyle=orthogonalEdgeStyle;rounded=0;orthogonalLoop=1;jettySize=auto;html=1;entryX=0.25;entryY=0;entryDx=0;entryDy=0;" edge="1" parent="1" source="4NkFLatkgoF2oea7ffIl-7" target="4NkFLatkgoF2oea7ffIl-14">
          <mxGeometry relative="1" as="geometry">
            <mxPoint x="360" y="210" as="targetPoint" />
          </mxGeometry>
        </mxCell>
        <mxCell id="4NkFLatkgoF2oea7ffIl-7" value="Tem saldo?" style="strokeWidth=2;html=1;shape=mxgraph.flowchart.decision;whiteSpace=wrap;" vertex="1" parent="1">
          <mxGeometry x="150" y="150" width="130" height="120" as="geometry" />
        </mxCell>
        <mxCell id="4NkFLatkgoF2oea7ffIl-9" value="Sim" style="text;html=1;align=center;verticalAlign=middle;resizable=0;points=[];autosize=1;strokeColor=none;fillColor=none;" vertex="1" parent="1">
          <mxGeometry x="310" y="180" width="40" height="30" as="geometry" />
        </mxCell>
        <mxCell id="4NkFLatkgoF2oea7ffIl-10" value="Nao" style="text;html=1;align=center;verticalAlign=middle;resizable=0;points=[];autosize=1;strokeColor=none;fillColor=none;" vertex="1" parent="1">
          <mxGeometry x="90" y="180" width="50" height="30" as="geometry" />
        </mxCell>
        <mxCell id="hV-JdpFL3h3WL0cQhhzN-4" value="" style="edgeStyle=orthogonalEdgeStyle;rounded=0;orthogonalLoop=1;jettySize=auto;html=1;" edge="1" parent="1" source="4NkFLatkgoF2oea7ffIl-11" target="4NkFLatkgoF2oea7ffIl-13">
          <mxGeometry relative="1" as="geometry" />
        </mxCell>
        <mxCell id="4NkFLatkgoF2oea7ffIl-11" value="Salvo&amp;nbsp;&lt;br&gt;insuficiente" style="strokeWidth=2;html=1;shape=mxgraph.flowchart.display;whiteSpace=wrap;" vertex="1" parent="1">
          <mxGeometry x="25" y="280" width="100" height="60" as="geometry" />
        </mxCell>
        <mxCell id="4NkFLatkgoF2oea7ffIl-13" value="Sistema&amp;nbsp;&lt;br&gt;encerrado&lt;br&gt;catraca nao&lt;br&gt;liberada&lt;div&gt;&lt;br&gt;&lt;/div&gt;" style="strokeWidth=2;html=1;shape=mxgraph.flowchart.start_1;whiteSpace=wrap;" vertex="1" parent="1">
          <mxGeometry x="25" y="380" width="100" height="90" as="geometry" />
        </mxCell>
        <mxCell id="hV-JdpFL3h3WL0cQhhzN-2" value="" style="edgeStyle=orthogonalEdgeStyle;rounded=0;orthogonalLoop=1;jettySize=auto;html=1;" edge="1" parent="1" source="4NkFLatkgoF2oea7ffIl-14" target="4NkFLatkgoF2oea7ffIl-15">
          <mxGeometry relative="1" as="geometry" />
        </mxCell>
        <mxCell id="4NkFLatkgoF2oea7ffIl-14" value="Descontar o valor&lt;br&gt;da passagem" style="rounded=1;whiteSpace=wrap;html=1;absoluteArcSize=1;arcSize=14;strokeWidth=2;" vertex="1" parent="1">
          <mxGeometry x="330" y="250" width="140" height="70" as="geometry" />
        </mxCell>
        <mxCell id="hV-JdpFL3h3WL0cQhhzN-3" value="" style="edgeStyle=orthogonalEdgeStyle;rounded=0;orthogonalLoop=1;jettySize=auto;html=1;" edge="1" parent="1" source="4NkFLatkgoF2oea7ffIl-15" target="hV-JdpFL3h3WL0cQhhzN-1">
          <mxGeometry relative="1" as="geometry" />
        </mxCell>
        <mxCell id="4NkFLatkgoF2oea7ffIl-15" value="Saldo atual +&lt;br&gt;mostrar o saldo" style="strokeWidth=2;html=1;shape=mxgraph.flowchart.display;whiteSpace=wrap;" vertex="1" parent="1">
          <mxGeometry x="320" y="360" width="130" height="60" as="geometry" />
        </mxCell>
        <mxCell id="hV-JdpFL3h3WL0cQhhzN-1" value="Fim" style="strokeWidth=2;html=1;shape=mxgraph.flowchart.start_2;whiteSpace=wrap;" vertex="1" parent="1">
          <mxGeometry x="345" y="450" width="80" height="70" as="geometry" />
        </mxCell>
      </root>
    </mxGraphModel>
  </diagram>
  <diagram id="L8Ar_uqMpP9CforqNBy3" name="Página-2">
    <mxGraphModel dx="1050" dy="505" grid="1" gridSize="10" guides="1" tooltips="1" connect="1" arrows="1" fold="1" page="1" pageScale="1" pageWidth="827" pageHeight="1169" math="0" shadow="0">
      <root>
        <mxCell id="0" />
        <mxCell id="1" parent="0" />
        <mxCell id="jvnLOY_vbYM2R2xlQq3p-5" value="" style="edgeStyle=orthogonalEdgeStyle;rounded=0;orthogonalLoop=1;jettySize=auto;html=1;entryX=0.607;entryY=0.06;entryDx=0;entryDy=0;entryPerimeter=0;" edge="1" parent="1" source="HUEc0J28Nawr636oSUOV-1" target="jvnLOY_vbYM2R2xlQq3p-2">
          <mxGeometry relative="1" as="geometry" />
        </mxCell>
        <mxCell id="HUEc0J28Nawr636oSUOV-1" value="Inicio" style="strokeWidth=2;html=1;shape=mxgraph.flowchart.start_2;whiteSpace=wrap;" vertex="1" parent="1">
          <mxGeometry x="260" y="20" width="70" height="70" as="geometry" />
        </mxCell>
        <mxCell id="jvnLOY_vbYM2R2xlQq3p-14" value="" style="edgeStyle=orthogonalEdgeStyle;rounded=0;orthogonalLoop=1;jettySize=auto;html=1;" edge="1" parent="1" source="jvnLOY_vbYM2R2xlQq3p-1" target="jvnLOY_vbYM2R2xlQq3p-3">
          <mxGeometry relative="1" as="geometry" />
        </mxCell>
        <mxCell id="jvnLOY_vbYM2R2xlQq3p-1" value="n1" style="html=1;strokeWidth=2;shape=manualInput;whiteSpace=wrap;rounded=1;size=26;arcSize=11;" vertex="1" parent="1">
          <mxGeometry x="240" y="220" width="100" height="60" as="geometry" />
        </mxCell>
        <mxCell id="jvnLOY_vbYM2R2xlQq3p-9" value="" style="edgeStyle=orthogonalEdgeStyle;rounded=0;orthogonalLoop=1;jettySize=auto;html=1;" edge="1" parent="1" source="jvnLOY_vbYM2R2xlQq3p-2" target="jvnLOY_vbYM2R2xlQq3p-1">
          <mxGeometry relative="1" as="geometry" />
        </mxCell>
        <mxCell id="jvnLOY_vbYM2R2xlQq3p-2" value="Qual a primeira&lt;br&gt;nota?" style="strokeWidth=2;html=1;shape=mxgraph.flowchart.display;whiteSpace=wrap;" vertex="1" parent="1">
          <mxGeometry x="230" y="120" width="120" height="70" as="geometry" />
        </mxCell>
        <mxCell id="jvnLOY_vbYM2R2xlQq3p-15" value="" style="edgeStyle=orthogonalEdgeStyle;rounded=0;orthogonalLoop=1;jettySize=auto;html=1;" edge="1" parent="1" source="jvnLOY_vbYM2R2xlQq3p-3" target="jvnLOY_vbYM2R2xlQq3p-7">
          <mxGeometry relative="1" as="geometry" />
        </mxCell>
        <mxCell id="jvnLOY_vbYM2R2xlQq3p-3" value="Qual a segunda&lt;br&gt;nota?" style="strokeWidth=2;html=1;shape=mxgraph.flowchart.display;whiteSpace=wrap;" vertex="1" parent="1">
          <mxGeometry x="230" y="320" width="100" height="60" as="geometry" />
        </mxCell>
        <mxCell id="jvnLOY_vbYM2R2xlQq3p-17" value="" style="edgeStyle=orthogonalEdgeStyle;rounded=0;orthogonalLoop=1;jettySize=auto;html=1;" edge="1" parent="1" source="jvnLOY_vbYM2R2xlQq3p-4" target="jvnLOY_vbYM2R2xlQq3p-8">
          <mxGeometry relative="1" as="geometry" />
        </mxCell>
        <mxCell id="jvnLOY_vbYM2R2xlQq3p-4" value="Qual a terceira&lt;br&gt;nota?" style="strokeWidth=2;html=1;shape=mxgraph.flowchart.display;whiteSpace=wrap;" vertex="1" parent="1">
          <mxGeometry x="230" y="520" width="100" height="60" as="geometry" />
        </mxCell>
        <mxCell id="jvnLOY_vbYM2R2xlQq3p-16" value="" style="edgeStyle=orthogonalEdgeStyle;rounded=0;orthogonalLoop=1;jettySize=auto;html=1;" edge="1" parent="1" source="jvnLOY_vbYM2R2xlQq3p-7" target="jvnLOY_vbYM2R2xlQq3p-4">
          <mxGeometry relative="1" as="geometry" />
        </mxCell>
        <mxCell id="jvnLOY_vbYM2R2xlQq3p-7" value="n2" style="html=1;strokeWidth=2;shape=manualInput;whiteSpace=wrap;rounded=1;size=26;arcSize=11;" vertex="1" parent="1">
          <mxGeometry x="230" y="410" width="100" height="60" as="geometry" />
        </mxCell>
        <mxCell id="jvnLOY_vbYM2R2xlQq3p-8" value="n3" style="html=1;strokeWidth=2;shape=manualInput;whiteSpace=wrap;rounded=1;size=26;arcSize=11;" vertex="1" parent="1">
          <mxGeometry x="230" y="620" width="100" height="60" as="geometry" />
        </mxCell>
        <mxCell id="jvnLOY_vbYM2R2xlQq3p-23" value="" style="edgeStyle=orthogonalEdgeStyle;rounded=0;orthogonalLoop=1;jettySize=auto;html=1;" edge="1" parent="1" source="jvnLOY_vbYM2R2xlQq3p-18" target="jvnLOY_vbYM2R2xlQq3p-19">
          <mxGeometry relative="1" as="geometry">
            <Array as="points">
              <mxPoint x="280" y="750" />
              <mxPoint x="280" y="750" />
            </Array>
          </mxGeometry>
        </mxCell>
        <mxCell id="jvnLOY_vbYM2R2xlQq3p-18" value="" style="rounded=0;whiteSpace=wrap;html=1;fillColor=none;" vertex="1" parent="1">
          <mxGeometry x="185" y="10" width="225" height="720" as="geometry" />
        </mxCell>
        <mxCell id="jvnLOY_vbYM2R2xlQq3p-24" value="" style="edgeStyle=orthogonalEdgeStyle;rounded=0;orthogonalLoop=1;jettySize=auto;html=1;" edge="1" parent="1" source="jvnLOY_vbYM2R2xlQq3p-19" target="jvnLOY_vbYM2R2xlQq3p-22">
          <mxGeometry relative="1" as="geometry" />
        </mxCell>
        <mxCell id="jvnLOY_vbYM2R2xlQq3p-19" value="media = (n1&amp;nbsp; + n2 + n1) / 3" style="rounded=1;whiteSpace=wrap;html=1;absoluteArcSize=1;arcSize=14;strokeWidth=2;" vertex="1" parent="1">
          <mxGeometry x="192.5" y="790" width="175" height="70" as="geometry" />
        </mxCell>
        <mxCell id="jvnLOY_vbYM2R2xlQq3p-21" value="Entrada" style="text;html=1;align=center;verticalAlign=middle;resizable=0;points=[];autosize=1;strokeColor=none;fillColor=none;" vertex="1" parent="1">
          <mxGeometry x="344" y="700" width="70" height="30" as="geometry" />
        </mxCell>
        <mxCell id="jvnLOY_vbYM2R2xlQq3p-27" style="edgeStyle=orthogonalEdgeStyle;rounded=0;orthogonalLoop=1;jettySize=auto;html=1;" edge="1" parent="1" source="jvnLOY_vbYM2R2xlQq3p-22" target="jvnLOY_vbYM2R2xlQq3p-25">
          <mxGeometry relative="1" as="geometry" />
        </mxCell>
        <mxCell id="jvnLOY_vbYM2R2xlQq3p-22" value="media &amp;gt; 6" style="strokeWidth=2;html=1;shape=mxgraph.flowchart.decision;whiteSpace=wrap;" vertex="1" parent="1">
          <mxGeometry x="230" y="900" width="100" height="100" as="geometry" />
        </mxCell>
        <mxCell id="jvnLOY_vbYM2R2xlQq3p-25" value="Foi aprovado" style="strokeWidth=2;html=1;shape=mxgraph.flowchart.display;whiteSpace=wrap;" vertex="1" parent="1">
          <mxGeometry x="50" y="1030" width="100" height="60" as="geometry" />
        </mxCell>
        <mxCell id="jvnLOY_vbYM2R2xlQq3p-26" value="Foi reprovado" style="strokeWidth=2;html=1;shape=mxgraph.flowchart.display;whiteSpace=wrap;" vertex="1" parent="1">
          <mxGeometry x="400" y="1030" width="100" height="60" as="geometry" />
        </mxCell>
        <mxCell id="jvnLOY_vbYM2R2xlQq3p-28" style="edgeStyle=orthogonalEdgeStyle;rounded=0;orthogonalLoop=1;jettySize=auto;html=1;entryX=0.596;entryY=0.063;entryDx=0;entryDy=0;entryPerimeter=0;" edge="1" parent="1" source="jvnLOY_vbYM2R2xlQq3p-22" target="jvnLOY_vbYM2R2xlQq3p-26">
          <mxGeometry relative="1" as="geometry" />
        </mxCell>
        <mxCell id="jvnLOY_vbYM2R2xlQq3p-29" value="Sim" style="text;html=1;align=center;verticalAlign=middle;resizable=0;points=[];autosize=1;strokeColor=none;fillColor=none;" vertex="1" parent="1">
          <mxGeometry x="130" y="918" width="40" height="30" as="geometry" />
        </mxCell>
        <mxCell id="jvnLOY_vbYM2R2xlQq3p-30" value="Nao" style="text;html=1;align=center;verticalAlign=middle;resizable=0;points=[];autosize=1;strokeColor=none;fillColor=none;" vertex="1" parent="1">
          <mxGeometry x="367.5" y="918" width="50" height="30" as="geometry" />
        </mxCell>
        <mxCell id="jvnLOY_vbYM2R2xlQq3p-31" value="Sistema&amp;nbsp;&lt;br&gt;encerra" style="strokeWidth=2;html=1;shape=mxgraph.flowchart.start_2;whiteSpace=wrap;" vertex="1" parent="1">
          <mxGeometry x="250" y="1090" width="60" height="70" as="geometry" />
        </mxCell>
        <mxCell id="jvnLOY_vbYM2R2xlQq3p-33" style="edgeStyle=orthogonalEdgeStyle;rounded=0;orthogonalLoop=1;jettySize=auto;html=1;entryX=0;entryY=0.5;entryDx=0;entryDy=0;entryPerimeter=0;" edge="1" parent="1" source="jvnLOY_vbYM2R2xlQq3p-25" target="jvnLOY_vbYM2R2xlQq3p-31">
          <mxGeometry relative="1" as="geometry">
            <Array as="points">
              <mxPoint x="100" y="1125" />
            </Array>
          </mxGeometry>
        </mxCell>
        <mxCell id="jvnLOY_vbYM2R2xlQq3p-34" style="edgeStyle=orthogonalEdgeStyle;rounded=0;orthogonalLoop=1;jettySize=auto;html=1;entryX=1;entryY=0.5;entryDx=0;entryDy=0;entryPerimeter=0;" edge="1" parent="1" source="jvnLOY_vbYM2R2xlQq3p-26" target="jvnLOY_vbYM2R2xlQq3p-31">
          <mxGeometry relative="1" as="geometry">
            <Array as="points">
              <mxPoint x="460" y="1125" />
            </Array>
          </mxGeometry>
        </mxCell>
        <mxCell id="jvnLOY_vbYM2R2xlQq3p-35" value="" style="rounded=0;whiteSpace=wrap;html=1;fillColor=none;fontColor=#ffffff;strokeColor=#3700CC;dashed=1;" vertex="1" parent="1">
          <mxGeometry x="120" y="770" width="310" height="250" as="geometry" />
        </mxCell>
        <mxCell id="jvnLOY_vbYM2R2xlQq3p-36" value="Processamento" style="text;html=1;align=center;verticalAlign=middle;resizable=0;points=[];autosize=1;strokeColor=none;fillColor=none;" vertex="1" parent="1">
          <mxGeometry x="324" y="990" width="110" height="30" as="geometry" />
        </mxCell>
        <mxCell id="jvnLOY_vbYM2R2xlQq3p-37" value="" style="rounded=0;whiteSpace=wrap;html=1;fillColor=none;dashed=1;dashPattern=12 12;" vertex="1" parent="1">
          <mxGeometry x="10" y="1020" width="570" height="210" as="geometry" />
        </mxCell>
        <mxCell id="jvnLOY_vbYM2R2xlQq3p-39" value="Saida" style="text;html=1;align=center;verticalAlign=middle;resizable=0;points=[];autosize=1;strokeColor=none;fillColor=none;" vertex="1" parent="1">
          <mxGeometry x="520" y="1188" width="50" height="30" as="geometry" />
        </mxCell>
      </root>
    </mxGraphModel>
  </diagram>
  <diagram id="PdBsidQupcW4t0NVvoCs" name="Exercicio1-Retangulo">
    <mxGraphModel dx="1050" dy="505" grid="1" gridSize="10" guides="1" tooltips="1" connect="1" arrows="1" fold="1" page="1" pageScale="1" pageWidth="827" pageHeight="1169" math="0" shadow="0">
      <root>
        <mxCell id="0" />
        <mxCell id="1" parent="0" />
        <mxCell id="Pgixi6OoNrRlebEIAXSq-1" value="" style="edgeStyle=orthogonalEdgeStyle;rounded=0;orthogonalLoop=1;jettySize=auto;html=1;" edge="1" parent="1" source="cnlkbYlfklqTnn-p8EWs-1" target="3qV0_iEspJynMDeLYvIC-1">
          <mxGeometry relative="1" as="geometry" />
        </mxCell>
        <mxCell id="cnlkbYlfklqTnn-p8EWs-1" value="Inicio" style="strokeWidth=2;html=1;shape=mxgraph.flowchart.start_2;whiteSpace=wrap;" vertex="1" parent="1">
          <mxGeometry x="290" y="10" width="70" height="70" as="geometry" />
        </mxCell>
        <mxCell id="Pgixi6OoNrRlebEIAXSq-2" value="" style="edgeStyle=orthogonalEdgeStyle;rounded=0;orthogonalLoop=1;jettySize=auto;html=1;" edge="1" parent="1" source="3qV0_iEspJynMDeLYvIC-1" target="5dbsNz7SpcpKaR3IteIF-1">
          <mxGeometry relative="1" as="geometry" />
        </mxCell>
        <mxCell id="3qV0_iEspJynMDeLYvIC-1" value="Qual a largura&lt;br&gt;do terreno?" style="strokeWidth=2;html=1;shape=mxgraph.flowchart.display;whiteSpace=wrap;" vertex="1" parent="1">
          <mxGeometry x="260" y="120" width="130" height="60" as="geometry" />
        </mxCell>
        <mxCell id="Pgixi6OoNrRlebEIAXSq-3" value="" style="edgeStyle=orthogonalEdgeStyle;rounded=0;orthogonalLoop=1;jettySize=auto;html=1;" edge="1" parent="1" source="5dbsNz7SpcpKaR3IteIF-1" target="zf22RsGMJ8TBPqoc8z2X-1">
          <mxGeometry relative="1" as="geometry">
            <Array as="points">
              <mxPoint x="330" y="310" />
              <mxPoint x="330" y="310" />
            </Array>
          </mxGeometry>
        </mxCell>
        <mxCell id="5dbsNz7SpcpKaR3IteIF-1" value="largura" style="html=1;strokeWidth=2;shape=manualInput;whiteSpace=wrap;rounded=1;size=26;arcSize=11;" vertex="1" parent="1">
          <mxGeometry x="275" y="220" width="100" height="60" as="geometry" />
        </mxCell>
        <mxCell id="Pgixi6OoNrRlebEIAXSq-4" value="" style="edgeStyle=orthogonalEdgeStyle;rounded=0;orthogonalLoop=1;jettySize=auto;html=1;" edge="1" parent="1" source="zf22RsGMJ8TBPqoc8z2X-1" target="zf22RsGMJ8TBPqoc8z2X-2">
          <mxGeometry relative="1" as="geometry" />
        </mxCell>
        <mxCell id="zf22RsGMJ8TBPqoc8z2X-1" value="Qual a comprimento&lt;br&gt;do terreno?" style="strokeWidth=2;html=1;shape=mxgraph.flowchart.display;whiteSpace=wrap;" vertex="1" parent="1">
          <mxGeometry x="260" y="320" width="130" height="60" as="geometry" />
        </mxCell>
        <mxCell id="Pgixi6OoNrRlebEIAXSq-5" value="" style="edgeStyle=orthogonalEdgeStyle;rounded=0;orthogonalLoop=1;jettySize=auto;html=1;" edge="1" parent="1" source="zf22RsGMJ8TBPqoc8z2X-2" target="A3aLAHWIlkc-f0rtexO7-1">
          <mxGeometry relative="1" as="geometry" />
        </mxCell>
        <mxCell id="zf22RsGMJ8TBPqoc8z2X-2" value="comprimento" style="html=1;strokeWidth=2;shape=manualInput;whiteSpace=wrap;rounded=1;size=26;arcSize=11;" vertex="1" parent="1">
          <mxGeometry x="275" y="410" width="100" height="60" as="geometry" />
        </mxCell>
        <mxCell id="Pgixi6OoNrRlebEIAXSq-6" value="" style="edgeStyle=orthogonalEdgeStyle;rounded=0;orthogonalLoop=1;jettySize=auto;html=1;" edge="1" parent="1" source="A3aLAHWIlkc-f0rtexO7-1" target="lKNz607D_D9hZCB6AbGe-1">
          <mxGeometry relative="1" as="geometry">
            <Array as="points">
              <mxPoint x="325" y="660" />
              <mxPoint x="325" y="660" />
            </Array>
          </mxGeometry>
        </mxCell>
        <mxCell id="A3aLAHWIlkc-f0rtexO7-1" value="area do terreno = largura * comprimento" style="rounded=1;whiteSpace=wrap;html=1;absoluteArcSize=1;arcSize=14;strokeWidth=2;" vertex="1" parent="1">
          <mxGeometry x="217.5" y="520" width="215" height="100" as="geometry" />
        </mxCell>
        <mxCell id="Pgixi6OoNrRlebEIAXSq-7" value="" style="edgeStyle=orthogonalEdgeStyle;rounded=0;orthogonalLoop=1;jettySize=auto;html=1;" edge="1" parent="1" source="lKNz607D_D9hZCB6AbGe-1" target="fHJKj2kxv6kww0OKX5-J-1">
          <mxGeometry relative="1" as="geometry">
            <Array as="points">
              <mxPoint x="325" y="780" />
              <mxPoint x="325" y="780" />
            </Array>
          </mxGeometry>
        </mxCell>
        <mxCell id="lKNz607D_D9hZCB6AbGe-1" value="area do terreno" style="strokeWidth=2;html=1;shape=mxgraph.flowchart.display;whiteSpace=wrap;" vertex="1" parent="1">
          <mxGeometry x="260" y="670" width="130" height="80" as="geometry" />
        </mxCell>
        <mxCell id="fHJKj2kxv6kww0OKX5-J-1" value="Sistema&lt;br&gt;encerra" style="strokeWidth=2;html=1;shape=mxgraph.flowchart.start_2;whiteSpace=wrap;" vertex="1" parent="1">
          <mxGeometry x="290" y="790" width="80" height="70" as="geometry" />
        </mxCell>
      </root>
    </mxGraphModel>
  </diagram>
  <diagram id="BUoeNUcVT0eSFCUWSOWH" name="Exercicio2-IdadeDias">
    <mxGraphModel dx="1050" dy="505" grid="1" gridSize="10" guides="1" tooltips="1" connect="1" arrows="1" fold="1" page="1" pageScale="1" pageWidth="827" pageHeight="1169" math="0" shadow="0">
      <root>
        <mxCell id="0" />
        <mxCell id="1" parent="0" />
        <mxCell id="xt0E6pduPfJv0PuoVU66-2" value="" style="edgeStyle=orthogonalEdgeStyle;rounded=0;orthogonalLoop=1;jettySize=auto;html=1;" edge="1" parent="1" source="p6b-Yi9hyY54ggk10Sgt-1" target="WMOrZwqoMXkHlz8qo3DY-1">
          <mxGeometry relative="1" as="geometry" />
        </mxCell>
        <mxCell id="p6b-Yi9hyY54ggk10Sgt-1" value="Inicio" style="strokeWidth=2;html=1;shape=mxgraph.flowchart.start_2;whiteSpace=wrap;" vertex="1" parent="1">
          <mxGeometry x="290" y="10" width="70" height="70" as="geometry" />
        </mxCell>
        <mxCell id="OaM87UFpiDYUxkJL1nRx-1" value="Sistema&lt;br&gt;encerra" style="strokeWidth=2;html=1;shape=mxgraph.flowchart.start_2;whiteSpace=wrap;" vertex="1" parent="1">
          <mxGeometry x="285" y="620" width="80" height="70" as="geometry" />
        </mxCell>
        <mxCell id="xt0E6pduPfJv0PuoVU66-3" value="" style="edgeStyle=orthogonalEdgeStyle;rounded=0;orthogonalLoop=1;jettySize=auto;html=1;" edge="1" parent="1" source="WMOrZwqoMXkHlz8qo3DY-1" target="P_gIsNI3iI9SG3yy5HjH-1">
          <mxGeometry relative="1" as="geometry" />
        </mxCell>
        <mxCell id="WMOrZwqoMXkHlz8qo3DY-1" value="Qual sua idade?" style="strokeWidth=2;html=1;shape=mxgraph.flowchart.display;whiteSpace=wrap;" vertex="1" parent="1">
          <mxGeometry x="260" y="120" width="130" height="60" as="geometry" />
        </mxCell>
        <mxCell id="xt0E6pduPfJv0PuoVU66-4" value="" style="edgeStyle=orthogonalEdgeStyle;rounded=0;orthogonalLoop=1;jettySize=auto;html=1;" edge="1" parent="1" source="P_gIsNI3iI9SG3yy5HjH-1" target="PGq6iroY4ReFkaSgBDFG-1">
          <mxGeometry relative="1" as="geometry" />
        </mxCell>
        <mxCell id="P_gIsNI3iI9SG3yy5HjH-1" value="idade" style="html=1;strokeWidth=2;shape=manualInput;whiteSpace=wrap;rounded=1;size=26;arcSize=11;" vertex="1" parent="1">
          <mxGeometry x="275" y="220" width="100" height="60" as="geometry" />
        </mxCell>
        <mxCell id="xt0E6pduPfJv0PuoVU66-5" value="" style="edgeStyle=orthogonalEdgeStyle;rounded=0;orthogonalLoop=1;jettySize=auto;html=1;" edge="1" parent="1" source="PGq6iroY4ReFkaSgBDFG-1" target="xt0E6pduPfJv0PuoVU66-1">
          <mxGeometry relative="1" as="geometry" />
        </mxCell>
        <mxCell id="PGq6iroY4ReFkaSgBDFG-1" value="Dias de vida = idade * 365" style="rounded=1;whiteSpace=wrap;html=1;absoluteArcSize=1;arcSize=14;strokeWidth=2;" vertex="1" parent="1">
          <mxGeometry x="234" y="330" width="180" height="100" as="geometry" />
        </mxCell>
        <mxCell id="xt0E6pduPfJv0PuoVU66-6" value="" style="edgeStyle=orthogonalEdgeStyle;rounded=0;orthogonalLoop=1;jettySize=auto;html=1;" edge="1" parent="1" source="xt0E6pduPfJv0PuoVU66-1" target="OaM87UFpiDYUxkJL1nRx-1">
          <mxGeometry relative="1" as="geometry" />
        </mxCell>
        <mxCell id="xt0E6pduPfJv0PuoVU66-1" value="Dias de vida" style="strokeWidth=2;html=1;shape=mxgraph.flowchart.display;whiteSpace=wrap;" vertex="1" parent="1">
          <mxGeometry x="259" y="490" width="130" height="80" as="geometry" />
        </mxCell>
      </root>
    </mxGraphModel>
  </diagram>
  <diagram id="l1l_6eMtIrMVYSGLiXYi" name="Exercicio3-IdadeDiasMes">
    <mxGraphModel dx="1050" dy="505" grid="1" gridSize="10" guides="1" tooltips="1" connect="1" arrows="1" fold="1" page="1" pageScale="1" pageWidth="827" pageHeight="1169" math="0" shadow="0">
      <root>
        <mxCell id="0" />
        <mxCell id="1" parent="0" />
        <mxCell id="lVfmLVC8kWd22XSFikqb-1" value="" style="edgeStyle=orthogonalEdgeStyle;rounded=0;orthogonalLoop=1;jettySize=auto;html=1;" edge="1" parent="1" source="lVfmLVC8kWd22XSFikqb-2" target="lVfmLVC8kWd22XSFikqb-5">
          <mxGeometry relative="1" as="geometry" />
        </mxCell>
        <mxCell id="lVfmLVC8kWd22XSFikqb-2" value="Inicio" style="strokeWidth=2;html=1;shape=mxgraph.flowchart.start_2;whiteSpace=wrap;" vertex="1" parent="1">
          <mxGeometry x="290" y="10" width="70" height="70" as="geometry" />
        </mxCell>
        <mxCell id="lVfmLVC8kWd22XSFikqb-3" value="Sistema&lt;br&gt;encerra" style="strokeWidth=2;html=1;shape=mxgraph.flowchart.start_2;whiteSpace=wrap;" vertex="1" parent="1">
          <mxGeometry x="285" y="620" width="80" height="70" as="geometry" />
        </mxCell>
        <mxCell id="lVfmLVC8kWd22XSFikqb-4" value="" style="edgeStyle=orthogonalEdgeStyle;rounded=0;orthogonalLoop=1;jettySize=auto;html=1;" edge="1" parent="1" source="lVfmLVC8kWd22XSFikqb-5" target="lVfmLVC8kWd22XSFikqb-7">
          <mxGeometry relative="1" as="geometry" />
        </mxCell>
        <mxCell id="lVfmLVC8kWd22XSFikqb-5" value="Qual sua idade?" style="strokeWidth=2;html=1;shape=mxgraph.flowchart.display;whiteSpace=wrap;" vertex="1" parent="1">
          <mxGeometry x="260" y="120" width="130" height="60" as="geometry" />
        </mxCell>
        <mxCell id="lVfmLVC8kWd22XSFikqb-6" value="" style="edgeStyle=orthogonalEdgeStyle;rounded=0;orthogonalLoop=1;jettySize=auto;html=1;" edge="1" parent="1" source="lVfmLVC8kWd22XSFikqb-7" target="lVfmLVC8kWd22XSFikqb-9">
          <mxGeometry relative="1" as="geometry" />
        </mxCell>
        <mxCell id="lVfmLVC8kWd22XSFikqb-7" value="idade" style="html=1;strokeWidth=2;shape=manualInput;whiteSpace=wrap;rounded=1;size=26;arcSize=11;" vertex="1" parent="1">
          <mxGeometry x="275" y="220" width="100" height="60" as="geometry" />
        </mxCell>
        <mxCell id="lVfmLVC8kWd22XSFikqb-8" value="" style="edgeStyle=orthogonalEdgeStyle;rounded=0;orthogonalLoop=1;jettySize=auto;html=1;" edge="1" parent="1" source="lVfmLVC8kWd22XSFikqb-9" target="lVfmLVC8kWd22XSFikqb-11">
          <mxGeometry relative="1" as="geometry" />
        </mxCell>
        <mxCell id="lVfmLVC8kWd22XSFikqb-9" value="Dias de vida = idade * 365&lt;br&gt;Meses de vida = idade * 12" style="rounded=1;whiteSpace=wrap;html=1;absoluteArcSize=1;arcSize=14;strokeWidth=2;" vertex="1" parent="1">
          <mxGeometry x="235" y="350" width="180" height="100" as="geometry" />
        </mxCell>
        <mxCell id="lVfmLVC8kWd22XSFikqb-10" value="" style="edgeStyle=orthogonalEdgeStyle;rounded=0;orthogonalLoop=1;jettySize=auto;html=1;" edge="1" parent="1" source="lVfmLVC8kWd22XSFikqb-11" target="lVfmLVC8kWd22XSFikqb-3">
          <mxGeometry relative="1" as="geometry" />
        </mxCell>
        <mxCell id="lVfmLVC8kWd22XSFikqb-11" value="Dias de vida" style="strokeWidth=2;html=1;shape=mxgraph.flowchart.display;whiteSpace=wrap;" vertex="1" parent="1">
          <mxGeometry x="259" y="490" width="130" height="80" as="geometry" />
        </mxCell>
      </root>
    </mxGraphModel>
  </diagram>
  <diagram id="UwiiQ2qGFdT08PBLgPNb" name="Exercicio4-MediaNotas">
    <mxGraphModel dx="1050" dy="505" grid="1" gridSize="10" guides="1" tooltips="1" connect="1" arrows="1" fold="1" page="1" pageScale="1" pageWidth="827" pageHeight="1169" math="0" shadow="0">
      <root>
        <mxCell id="0" />
        <mxCell id="1" parent="0" />
        <mxCell id="gbmpCkEZdK05YITIbQlb-4" value="" style="edgeStyle=orthogonalEdgeStyle;rounded=0;orthogonalLoop=1;jettySize=auto;html=1;" edge="1" parent="1" source="t_c-UjKh665pfvPylZ0A-1" target="cJKpXJ9EHcK1LKKgqI60-1">
          <mxGeometry relative="1" as="geometry" />
        </mxCell>
        <mxCell id="t_c-UjKh665pfvPylZ0A-1" value="Inicio" style="strokeWidth=2;html=1;shape=mxgraph.flowchart.start_2;whiteSpace=wrap;" vertex="1" parent="1">
          <mxGeometry x="290" y="10" width="70" height="70" as="geometry" />
        </mxCell>
        <mxCell id="1KNSAyN6cPlgL4AoIS1a-1" value="Sistema&lt;br&gt;encerra" style="strokeWidth=2;html=1;shape=mxgraph.flowchart.start_2;whiteSpace=wrap;" vertex="1" parent="1">
          <mxGeometry x="285" y="1040" width="80" height="70" as="geometry" />
        </mxCell>
        <mxCell id="gbmpCkEZdK05YITIbQlb-5" value="" style="edgeStyle=orthogonalEdgeStyle;rounded=0;orthogonalLoop=1;jettySize=auto;html=1;" edge="1" parent="1" source="cJKpXJ9EHcK1LKKgqI60-1" target="gbmpCkEZdK05YITIbQlb-1">
          <mxGeometry relative="1" as="geometry" />
        </mxCell>
        <mxCell id="cJKpXJ9EHcK1LKKgqI60-1" value="Qual a primeira nota?" style="strokeWidth=2;html=1;shape=mxgraph.flowchart.display;whiteSpace=wrap;" vertex="1" parent="1">
          <mxGeometry x="260" y="120" width="130" height="60" as="geometry" />
        </mxCell>
        <mxCell id="gbmpCkEZdK05YITIbQlb-7" value="" style="edgeStyle=orthogonalEdgeStyle;rounded=0;orthogonalLoop=1;jettySize=auto;html=1;" edge="1" parent="1" source="cJKpXJ9EHcK1LKKgqI60-2" target="gbmpCkEZdK05YITIbQlb-2">
          <mxGeometry relative="1" as="geometry" />
        </mxCell>
        <mxCell id="cJKpXJ9EHcK1LKKgqI60-2" value="Qual a segunda nota?" style="strokeWidth=2;html=1;shape=mxgraph.flowchart.display;whiteSpace=wrap;" vertex="1" parent="1">
          <mxGeometry x="260" y="330" width="130" height="60" as="geometry" />
        </mxCell>
        <mxCell id="gbmpCkEZdK05YITIbQlb-9" value="" style="edgeStyle=orthogonalEdgeStyle;rounded=0;orthogonalLoop=1;jettySize=auto;html=1;" edge="1" parent="1" source="cJKpXJ9EHcK1LKKgqI60-3" target="gbmpCkEZdK05YITIbQlb-3">
          <mxGeometry relative="1" as="geometry" />
        </mxCell>
        <mxCell id="cJKpXJ9EHcK1LKKgqI60-3" value="Qual a terceira nota?" style="strokeWidth=2;html=1;shape=mxgraph.flowchart.display;whiteSpace=wrap;" vertex="1" parent="1">
          <mxGeometry x="260" y="540" width="130" height="60" as="geometry" />
        </mxCell>
        <mxCell id="gbmpCkEZdK05YITIbQlb-6" value="" style="edgeStyle=orthogonalEdgeStyle;rounded=0;orthogonalLoop=1;jettySize=auto;html=1;" edge="1" parent="1" source="gbmpCkEZdK05YITIbQlb-1" target="cJKpXJ9EHcK1LKKgqI60-2">
          <mxGeometry relative="1" as="geometry" />
        </mxCell>
        <mxCell id="gbmpCkEZdK05YITIbQlb-1" value="n1" style="html=1;strokeWidth=2;shape=manualInput;whiteSpace=wrap;rounded=1;size=26;arcSize=11;" vertex="1" parent="1">
          <mxGeometry x="275" y="220" width="100" height="60" as="geometry" />
        </mxCell>
        <mxCell id="gbmpCkEZdK05YITIbQlb-8" value="" style="edgeStyle=orthogonalEdgeStyle;rounded=0;orthogonalLoop=1;jettySize=auto;html=1;" edge="1" parent="1" source="gbmpCkEZdK05YITIbQlb-2" target="cJKpXJ9EHcK1LKKgqI60-3">
          <mxGeometry relative="1" as="geometry" />
        </mxCell>
        <mxCell id="gbmpCkEZdK05YITIbQlb-2" value="n2" style="html=1;strokeWidth=2;shape=manualInput;whiteSpace=wrap;rounded=1;size=26;arcSize=11;" vertex="1" parent="1">
          <mxGeometry x="275" y="440" width="100" height="60" as="geometry" />
        </mxCell>
        <mxCell id="WV__lBBxOkML5VGui3Rz-2" value="" style="edgeStyle=orthogonalEdgeStyle;rounded=0;orthogonalLoop=1;jettySize=auto;html=1;" edge="1" parent="1" source="gbmpCkEZdK05YITIbQlb-3" target="WV__lBBxOkML5VGui3Rz-1">
          <mxGeometry relative="1" as="geometry" />
        </mxCell>
        <mxCell id="gbmpCkEZdK05YITIbQlb-3" value="n3" style="html=1;strokeWidth=2;shape=manualInput;whiteSpace=wrap;rounded=1;size=26;arcSize=11;" vertex="1" parent="1">
          <mxGeometry x="275" y="640" width="100" height="60" as="geometry" />
        </mxCell>
        <mxCell id="s2xxZX-62Ty9qz8Yk8B8-2" value="" style="edgeStyle=orthogonalEdgeStyle;rounded=0;orthogonalLoop=1;jettySize=auto;html=1;" edge="1" parent="1" source="WV__lBBxOkML5VGui3Rz-1" target="s2xxZX-62Ty9qz8Yk8B8-1">
          <mxGeometry relative="1" as="geometry" />
        </mxCell>
        <mxCell id="WV__lBBxOkML5VGui3Rz-1" value="media = (n1 + n2 + n3) / 3" style="rounded=1;whiteSpace=wrap;html=1;absoluteArcSize=1;arcSize=14;strokeWidth=2;" vertex="1" parent="1">
          <mxGeometry x="212.5" y="770" width="225" height="100" as="geometry" />
        </mxCell>
        <mxCell id="s2xxZX-62Ty9qz8Yk8B8-3" value="" style="edgeStyle=orthogonalEdgeStyle;rounded=0;orthogonalLoop=1;jettySize=auto;html=1;" edge="1" parent="1" source="s2xxZX-62Ty9qz8Yk8B8-1" target="1KNSAyN6cPlgL4AoIS1a-1">
          <mxGeometry relative="1" as="geometry" />
        </mxCell>
        <mxCell id="s2xxZX-62Ty9qz8Yk8B8-1" value="media" style="strokeWidth=2;html=1;shape=mxgraph.flowchart.display;whiteSpace=wrap;" vertex="1" parent="1">
          <mxGeometry x="250" y="920" width="140" height="80" as="geometry" />
        </mxCell>
      </root>
    </mxGraphModel>
  </diagram>
  <diagram id="_OuE6i6gXQuZ43DqUu8t" name="Exercicio5-MsgAprovado">
    <mxGraphModel dx="1050" dy="505" grid="1" gridSize="10" guides="1" tooltips="1" connect="1" arrows="1" fold="1" page="1" pageScale="1" pageWidth="827" pageHeight="1169" math="0" shadow="0">
      <root>
        <mxCell id="0" />
        <mxCell id="1" parent="0" />
        <mxCell id="-Jp1rmSHCOEiJNwb_RMQ-1" value="Sistema&lt;br&gt;encerra" style="strokeWidth=2;html=1;shape=mxgraph.flowchart.start_2;whiteSpace=wrap;" vertex="1" parent="1">
          <mxGeometry x="270" y="780" width="80" height="70" as="geometry" />
        </mxCell>
        <mxCell id="ysfBKrlLP1sn-4huoZ2V-1" value="" style="edgeStyle=orthogonalEdgeStyle;rounded=0;orthogonalLoop=1;jettySize=auto;html=1;" edge="1" parent="1" source="pi4afRtfoIjh4Gk_lpA--1" target="pi4afRtfoIjh4Gk_lpA--2">
          <mxGeometry relative="1" as="geometry" />
        </mxCell>
        <mxCell id="pi4afRtfoIjh4Gk_lpA--1" value="Inicio" style="strokeWidth=2;html=1;shape=mxgraph.flowchart.start_2;whiteSpace=wrap;" vertex="1" parent="1">
          <mxGeometry x="290" y="10" width="70" height="70" as="geometry" />
        </mxCell>
        <mxCell id="ysfBKrlLP1sn-4huoZ2V-2" style="edgeStyle=orthogonalEdgeStyle;rounded=0;orthogonalLoop=1;jettySize=auto;html=1;" edge="1" parent="1" source="pi4afRtfoIjh4Gk_lpA--2" target="pi4afRtfoIjh4Gk_lpA--3">
          <mxGeometry relative="1" as="geometry" />
        </mxCell>
        <mxCell id="pi4afRtfoIjh4Gk_lpA--2" value="Qual a media do&lt;br&gt;aluno:" style="strokeWidth=2;html=1;shape=mxgraph.flowchart.display;whiteSpace=wrap;" vertex="1" parent="1">
          <mxGeometry x="260" y="120" width="130" height="60" as="geometry" />
        </mxCell>
        <mxCell id="pi4afRtfoIjh4Gk_lpA--3" value="media" style="html=1;strokeWidth=2;shape=manualInput;whiteSpace=wrap;rounded=1;size=26;arcSize=11;" vertex="1" parent="1">
          <mxGeometry x="275" y="220" width="100" height="60" as="geometry" />
        </mxCell>
        <mxCell id="lA9rvkA63wtKfrcM8k4V-1" value="media &amp;gt; 5" style="strokeWidth=2;html=1;shape=mxgraph.flowchart.decision;whiteSpace=wrap;" vertex="1" parent="1">
          <mxGeometry x="275" y="320" width="100" height="100" as="geometry" />
        </mxCell>
        <mxCell id="ZA1-He60QynQt2bWgy3q-1" value="Aprovado" style="strokeWidth=2;html=1;shape=mxgraph.flowchart.display;whiteSpace=wrap;" vertex="1" parent="1">
          <mxGeometry x="60" y="370" width="140" height="80" as="geometry" />
        </mxCell>
      </root>
    </mxGraphModel>
  </diagram>
  <diagram id="UYGeozeWtvzhfBiowrHS" name="Exercicio6-xxxx">
    <mxGraphModel dx="1050" dy="505" grid="1" gridSize="10" guides="1" tooltips="1" connect="1" arrows="1" fold="1" page="1" pageScale="1" pageWidth="827" pageHeight="1169" math="0" shadow="0">
      <root>
        <mxCell id="0" />
        <mxCell id="1" parent="0" />
        <mxCell id="0IuDZZiMK-UAdpMvVCPc-1" value="Inicio" style="strokeWidth=2;html=1;shape=mxgraph.flowchart.start_2;whiteSpace=wrap;" vertex="1" parent="1">
          <mxGeometry x="290" y="10" width="70" height="70" as="geometry" />
        </mxCell>
        <mxCell id="pHg4HAyw978tc1qVPSdd-1" value="Sistema&lt;br&gt;encerra" style="strokeWidth=2;html=1;shape=mxgraph.flowchart.start_2;whiteSpace=wrap;" vertex="1" parent="1">
          <mxGeometry x="270" y="780" width="80" height="70" as="geometry" />
        </mxCell>
      </root>
    </mxGraphModel>
  </diagram>
</mxfile>
